/* XPM */
static char *result[] = {
/* columns rows colors chars-per-pixel */
"60 60 90 1 ",
"{ c #6FC500",
"  c #6FC500",
". c #0E0B12",
"X c #080C13",
"o c #0E0C13",
"O c #0D0D15",
"+ c #0E0E16",
"@ c #0F0E17",
"# c #0E0F1B",
"$ c #0E0F1D",
"% c #110D15",
"& c #0F101D",
"* c #12101B",
"= c #13151F",
"- c #15141D",
"; c #12191E",
": c #101E1D",
"> c #101F1E",
", c #27120A",
"< c #30160C",
"1 c #221213",
"2 c #2D1D17",
"3 c #361E14",
"4 c #36231C",
"5 c #3D251D",
"6 c #0F1222",
"7 c #111321",
"8 c #121320",
"9 c #141621",
"0 c #151622",
"q c #101325",
"w c #181722",
"e c #131D21",
"r c #191825",
"t c #1A1926",
"y c #1D1924",
"u c #14172A",
"i c #1A1D2B",
"p c #1D1C2A",
"a c #1E1E2E",
"s c #1E1F2F",
"d c #181F3B",
"f c #142524",
"g c #1D202E",
"h c #232133",
"j c #232235",
"k c #252538",
"l c #25273C",
"z c #272A3F",
"x c #3F333D",
"c c #46121C",
"v c #47131C",
"b c #45151C",
"n c #452318",
"m c #57291F",
"M c #47302A",
"N c #43322C",
"B c #4F3E2E",
"V c #543020",
"C c #56302C",
"Z c #57312D",
"A c #5E3A33",
"S c #613C37",
"D c #6B4C20",
"F c #292A40",
"G c #292D43",
"H c #2D2E44",
"J c #2F3149",
"K c #31344E",
"L c #333651",
"P c #363B58",
"I c #393E5D",
"U c #5D4446",
"Y c #6D5855",
"T c #A07127",
"R c #8B4446",
"E c #814C46",
"W c #884548",
"Q c #92524C",
"! c #875352",
"~ c #805A56",
"^ c #8B6057",
"/ c #846B64",
"( c #936A63",
") c #AA7066",
"_ c #C58479",
"` c #C59485",
"' c #D39D8E",
"] c #DDA999",
"[ c #E6B6A8",
/* pixels */
"{{{{{{{{{{{{{{{{{{{{{{{{{{{{{{{{{{{{{{{{{{{{{{{{{{{{{{{{{{{{",
"{{{{{{{{{{{{{{{{{{{{{{{{{{{{{{{{{{{{{{{{{{{{{{{{{{{{{{{{{{{{",
"{{{{{{{{{{{{{{{{{{{{{{{{{{{{{{{{{{{{{{{{{{{{{{{{{{{{{{{{{{{{",
"{{{{{{{{{{{{{{{{{{{{{{{{{{{{{{{{{{{{{{{{{{{{{{{{{{{{{{{{{{{{",
"{{{{{{{{{{{{{{{{{{{{{{{{{{{{{{{{{{{{{{{{{{{{{{{{{{{{{{{{{{{{",
"{{{{{{{{{{{{{{{{{{{{{{{{{{{{{{{{{{{{{{{{{{{{{{{{{{{{{{{{{{{{",
"{{{{{{{{{{{{{{{{{{{{{{{{{{{{{{{{{{{{{{{{{{{{{{{{{{{{{{{{{{{{",
"{{{{{{{{{{{{{{{{{{{{{{{{{{{{{{{{{{{{{{{{{{{{{{{{{{{{{{{{{{{{",
"{{{{{{{{{{{{{{{{{{{{{{{{{{{{{{{{{{{{{{{{{{{{{{{{{{{{{{{{{{{{",
"{{{{{{{{{{{{{{{{{{{{{{{{{{{{{{{{{{{{{{{{{{{{{{{{{{{{{{{{{{{{",
"{{{{{{{{{{{{{{{{{{{{{{{{{{{{{{{{{{{{{{{{{{{{{{{{{{{{{{{{{{{{",
"{{{{{{{{{{{{{{{{{{{{{{{{{{{{{{{{{{{{{{{{{{{{{{{{{{{{{{{{{{{{",
"{{{{{{{{{{{{{{{{{{{{{{{{{{{{{{{{{{{{{{{{{{{{{{{{{{{{{{{{{{{{",
"{{{{{{{{{{{{{{{{{{{{{{{{{{{{{{{{{{{{{{{{{{{{{{{{{{{{{{{{{{{{",
"{{{{{{{{{{{{{{{{{{{{{{{{{{{{{{{{{{{{{{{{{{{{{{{{{{{{{{{{{{{{",
"{{{{{{{{{{{{{{{{{{{{{{{{{{{{{{{{{{{{{{{{{{{{{{{{{{{{{{{{{{{{",
"{{{{{{{{{{{{{{{{{{{{{{{{{{{{{{{{{{{{{{{{{{{{{{{{{{{{{{{{{{{{",
"{{{{{{{{{{{{{{{{{{{{{{{{{{{{{{{{{{{{{{{{{{{{{{{{{{{{{{{{{{{{",
"{{{{{{{{{{{{{{{{{{{{{{{{{{{{{{{{{{{{{{{{{{{{{{{{{{{{{{{{{{{{",
"{{{{{{{{{{{{{{{{{{{{{{{{{{{{{{{{{{{{{{{{{{{{{{{{{{{{{{{{{{{{",
"{{{{{{{{{{{{{{{{{{{{{{{{{{{{{{{{{{{{{{{{{{{{{{{{{{{{{{{{{{{{",
"{{{{{{{{{{{{{{{{{{{{{{{{{{{#%{{{{{{{{{{{{{{{{{{{{{{{{{{{{{{{",
"{{{{{{{{{{{{{{{{{{{{{{{{{{Xuu2{{{{{{{{{{{{{{{{{{{{{{{{{{{{{{",
"{{{{{{{{{{{{{{{{{{{{{{{{{{q84Br6{{{{{{{{{{{{{{{{{{{{{{{{{{{{",
"{{{{{{{{{{{{{{{{{{{{{{{{{68oo*8*8.{{{{{{{{{{{{{{{{{{{{{{{{{{",
"{{{{{{{{{{{{{{{{{{{{{{{{qu*o**$uu86{{{{{{{{{{{{{{{{{{{{{{{{{",
"{{{{{{{{{{{{{{{{{{{{{{{{7u*o$uduuw8X{{{{{{{{{{{{{{{{{{{{{{{{",
"{{{{{{{{{{{{{{{{{{{{{{{{%u*$8u$8118-{{{{{{{{{{{{{{{{{{{{{{{{",
"{{{{{{{{{{{{{{{{{{{{{{{{q8*o$xxB(U@{{{{{{{{{{{{{{{{{{{{{{{{{",
"{{{{{{{{{{{{{{{{{{{{{{{{&*o&#(]][/{{{{{{{{{{{{{{{{{{{{{{{{{{",
"{{{{{{{{{{{{{{{{{{{{{{{{&@o.{2^'`{{{{{{{{{{{{{{{{{{{{{{{{{{{",
"{{{{{{{{{{{{{{{{{{{{{{{{#O{{{NES{{{{{{{{{{{{{{{{{{{{{{{{{{{{",
"{{{{{{{{{{{{{{{{{{{{{{{{{{{{{Y_3{{{{{{{{{{{{{{{{{{{{{{{{{{{{",
"{{{{{{{{{{{{{{{{{{{{{{{{{{9iGY]Ai9{{{{{{{{{{{{{{{{{{{{{{{{{{",
"{{{{{{{{{{{{{{{{{{{{{{{{{{GLIx`~KPs{{{{{{{{{{{{{{{{{{{{{{{{{",
"{{{{{{{{{{{{{{{{{{{{{{{{{{GjIK~)HKg{{{{{{{{{{{{{{{{{{{{{{{{{",
"{{{{{{{{{{{{{{{{{{{{{{{{{9JwKIxQHJ@{{{{{{{{{{{{{{{{{{{{{{{{{",
"{{{{{{{{{{{{{{{{{{{{{{{{{eHwkILZJP8 {{{{{{{{{{{{{{{{{{{{{{{{",
"{{{{{{{{{{{{{{{{{{{{{{{{{zF8wkjyPK8+{{{{{{{{{{{{{{{{{{{{{{{{",
"{{{{{{{{{{{{{{{{{{{{{{{{{FjllJkhIFw&{{{V3{{{{{{{{{{{{{{{{{{{",
"{{{{{{{{{{{{{{{{{{{{{{{{;HLPKFwpjayZVcv{{{{{{{{{{{{{{{{{{{{{",
"{{{{{{{{{{{{{{{{{{{{{{{{{ggty4DTTDMRb3{{{{{{{{{{{{{{{{{{{{{{",
"{{{{{{{{{{{{{{{{{{{{{{{{{{{Oy44MBBMQC{{{{{{{{{{{{{{{{{{{{{{{",
"{{{{{{{{{{{{{{{{{{{{{{{{{{{syplPIPFy-{{{{{{{{{{{{{{{{{{{{{{{",
"{{{{{{{{{{{{{{{{{{{{{{{{{{{kwjLIPJFw {{{{{{{{{{{{{{{{{{{{{{{",
"{{{{{{{{{{{{{{{{{{{{{{{{{{=kwkPIJFKw {{{{{{{{{{{{{{{{{{{{{{{",
"{{{{{{{{{{{{{{{{{{{{{{{{{{iapkKJjFPw {{{{{{{{{{{{{{{{{{{{{{{",
"{{{{{{{{{{{{{{{{{{{{{{{{{>gaajjjhFP7{{{{{{{{{{{{{{{{{{{{{{{{",
"{{{{{{{{{{{{{{{{{{{{e>ff::lyhjjjhFP-{{{{{{{{{{{{{{{{{{{{{{{{",
"{{{{{{{{{{{{{{{{{{{Xe;{{{{kwjjjjhFP-{{{{{{{{{{{{{{{{{{{{{{{{",
"{{{{{{{{{{{{{{{{{{{{{{{{{{gpjjjjjHP-{{{{{{{{{{{{{{{{{{{{{{{{",
"{{{{{{{{{{{{{{{{{{{{{{{{{{apjjjjjLP-{{{{{{{{{{{{{{{{{{{{{{{{",
"{{{{{{{{{{{{{{{{{{{{{{{{{0aajjjjFIP-{{{{{{{{{{{{{{{{{{{{{{{{",
"{{{{{{{{{{{{{{{{{{{{{{{{{0phjjjjJIH%{{{{{{{{{{{{{{{{{{{{{{{{",
"{{{{{{{{{{{{{{{{{{{{{{{{{+whjjjjkFr{{{{{{{{{{{{{{{{{{{{{{{{{",
"{{{{{{{{{{{{{{{{{{{{{{{{{2ZOrtttt4.{{{{{{{{{{{{{{{{{{{{{{{{{",
"{{{{{{{{{{{{{{{{{{{{{{{{{WR{{{{{{RW{{{{{{{{{{{{{{{{{{{{{{{{{",
"{{{{{{{{{{{{{{{{{{{{{{{{{(R{{{{{{E_!N{{{{{{{{{{{{{{{{{{{{{{{",
"{{{{{{{{{{{{{{{{{{{{{{{{{nm%{{{{{nZA5{{{{{{{{{{{{{{{{{{{{{{{",
"{{{{{{{{{{{{{{{{{{{{{{{{{,n{{{{{{<<<,{{{{{{{{{{{{{{{{{{{{{{{"
};
