/* XPM */
static char *result[] = {
/* columns rows colors chars-per-pixel */
"60 60 80 1",

"  c #6FC500",
"~ c #6FC500",
". c #0D0C14",
"X c #0D0D15",
"o c #0E0C14",
"O c #0B0D18",
"+ c #100D13",
"@ c #100E19",
"# c #121119",
"$ c #11101A",
"% c #12131D",
"& c #12141E",
"* c #101E1D",
"= c #2B140C",
"- c #33170D",
"; c #221316",
": c #2B1513",
"> c #2E1E12",
", c #2D1C17",
"< c #1C221B",
"1 c #39211E",
"2 c #0F1120",
"3 c #141420",
"4 c #111425",
"5 c #141625",
"6 c #151725",
"7 c #191825",
"8 c #14172A",
"9 c #1B1A28",
"0 c #191D29",
"q c #1E1F2F",
"w c #132422",
"e c #162128",
"r c #292520",
"t c #2F2128",
"y c #362B22",
"u c #232133",
"i c #242335",
"p c #222436",
"a c #252538",
"s c #292A3F",
"d c #46131C",
"f c #41211C",
"g c #4F211C",
"h c #512B1A",
"j c #542F1B",
"k c #4E391B",
"l c #522F2B",
"z c #46342F",
"x c #5A332A",
"c c #5C3531",
"v c #5F3B35",
"b c #743F3B",
"n c #74481C",
"m c #564222",
"M c #715822",
"N c #2A2C42",
"B c #2C2E44",
"V c #2E3049",
"C c #373142",
"Z c #323651",
"A c #363B58",
"S c #3A3F5E",
"D c #553F43",
"F c #624A4C",
"G c #625153",
"H c #775D55",
"J c #8F5C24",
"K c #966C2A",
"L c #864143",
"P c #884548",
"I c #894C49",
"U c #92544F",
"Y c #855D59",
"T c #996058",
"R c #9C6F67",
"E c #C6867B",
"W c #C59284",
"Q c #DDA797",
"! c #E4B2A2",
/* pixels */
"                                                            ",
"                                                            ",
"                                                            ",
"                                                            ",
"                                                            ",
"                                                            ",
"                                                            ",
"                                                            ",
"                                                            ",
"                                                            ",
"                                                            ",
"                                                            ",
"                                                            ",
"                                                            ",
"                                                            ",
"                                                            ",
"                                                            ",
"                                                            ",
"                                                            ",
"                                                            ",
"                                                            ",
"                                                            ",
"                           @%                               ",
"                          O87<                              ",
"                          43,k54O                           ",
"                         63oo$3$2@                          ",
"                       O48$o$$28824                         ",
"                        48$o28q88;3O                        ",
"                        +8$$28$3;;2&                        ",
"                        43$o2CDvRF.                         ",
"                        5$oo%TQ!!Y                          ",
"                        5.$# +UWW                           ",
"                        @@   zIc                            ",
"                             HE1                            ",
"                          &pVGQve&                          ",
"                          NZSCRRVZ0                         ",
"                          B9AADTBV9                         ",
"                         #V3NSCbCZ3                         ",
"                         pN7qZVtZZ3+                        ",
"                         Bi37iq7AV3X                        ",
"                        &sNAAZquVa7,> dj>                   ",
"                        &BVsaqymmytbgd                      ",
"                         +#o3hnJKMxUf                       ",
"                           697iVVVsvl                       ",
"                           a7uZSAVs3                        ",
"                          Oa7aASVNZ7                        ",
"                          %u9aZVisA7                        ",
"                          0q9iiiusA3                        ",
"                      *<ewi9uiiiusA%                        ",
"                   &wr<*  a7iiiiusA&                        ",
"                          u9iiiiiVA&                        ",
"                          q9iiiiiZA&                        ",
"                         #qqiiiisSA&                        ",
"                         #quiiiiVSN+                        ",
"                         #7uiiiias4                         ",
"                         :xX59999t#                         ",
"                         PL      LP                         ",
"                         RI      IEYz                       ",
"                         fh:     fxvr                       ",
"                         =g      =--@                       "
};