/* XPM */
static char *result[] = {
/* columns rows colors chars-per-pixel */
"60 60 81 1 ",
"^ c #6FC500",
"  c #6FC500",
". c #0C0B12",
"X c #090B14",
"o c #0B0C14",
"O c #0E0D17",
"+ c #100C13",
"@ c #140D12",
"# c #0D101C",
"$ c #12111C",
"% c #12141D",
"& c #101E1D",
"* c #30160C",
"= c #251713",
"- c #2F1816",
"; c #271C1B",
": c #3E1317",
"> c #11201E",
", c #2D221D",
"< c #101320",
"1 c #111221",
"2 c #111321",
"3 c #141520",
"4 c #171723",
"5 c #171F25",
"6 c #1A1826",
"7 c #181A26",
"8 c #1B1A26",
"9 c #141628",
"0 c #1E1D2B",
"q c #151A31",
"w c #1F1F30",
"e c #132523",
"r c #1D2030",
"t c #312126",
"y c #362B22",
"u c #242234",
"i c #222537",
"p c #242437",
"a c #27283D",
"s c #40221C",
"d c #4F211C",
"f c #512B1A",
"g c #512F23",
"h c #522F2B",
"j c #5C342D",
"k c #4F3030",
"l c #6D3D37",
"z c #55401C",
"x c #72501F",
"c c #564222",
"v c #66433D",
"b c #282B41",
"n c #2A2B40",
"m c #2B2D44",
"M c #2F3048",
"N c #30334E",
"B c #343752",
"V c #373B59",
"C c #3A3F5E",
"Z c #593E43",
"A c #49414A",
"S c #664949",
"D c #6A5149",
"F c #795C58",
"G c #936427",
"H c #823E41",
"J c #884548",
"K c #8A4848",
"L c #875352",
"P c #9D5350",
"I c #86635A",
"U c #9A645A",
"Y c #8B6C66",
"T c #A77168",
"R c #A7837A",
"E c #C58077",
"W c #C59283",
"Q c #D5A294",
"! c #E0AE9D",
"~ c #EDB6A4",
/* pixels */
"^^^^^^^^^^^^^^^^^^^^^^^^^^^^^^^^^^^^^^^^^^^^^^^^^^^^^^^^^^^^",
"^^^^^^^^^^^^^^^^^^^^^^^^^^^^^^^^^^^^^^^^^^^^^^^^^^^^^^^^^^^^",
"^^^^^^^^^^^^^^^^^^^^^^^^^^^^^^^^^^^^^^^^^^^^^^^^^^^^^^^^^^^^",
"^^^^^^^^^^^^^^^^^^^^^^^^^^^^^^^^^^^^^^^^^^^^^^^^^^^^^^^^^^^^",
"^^^^^^^^^^^^^^^^^^^^^^^^^^^^^^^^^^^^^^^^^^^^^^^^^^^^^^^^^^^^",
"^^^^^^^^^^^^^^^^^^^^^^^^^^^^^^^^^^^^^^^^^^^^^^^^^^^^^^^^^^^^",
"^^^^^^^^^^^^^^^^^^^^^^^^^^^^^^^^^^^^^^^^^^^^^^^^^^^^^^^^^^^^",
"^^^^^^^^^^^^^^^^^^^^^^^^^^^^^^^^^^^^^^^^^^^^^^^^^^^^^^^^^^^^",
"^^^^^^^^^^^^^^^^^^^^^^^^^^^^^^^^^^^^^^^^^^^^^^^^^^^^^^^^^^^^",
"^^^^^^^^^^^^^^^^^^^^^^^^^^^^^^^^^^^^^^^^^^^^^^^^^^^^^^^^^^^^",
"^^^^^^^^^^^^^^^^^^^^^^^^^^^^^^^^^^^^^^^^^^^^^^^^^^^^^^^^^^^^",
"^^^^^^^^^^^^^^^^^^^^^^^^^^^^^^^^^^^^^^^^^^^^^^^^^^^^^^^^^^^^",
"^^^^^^^^^^^^^^^^^^^^^^^^^^^^^^^^^^^^^^^^^^^^^^^^^^^^^^^^^^^^",
"^^^^^^^^^^^^^^^^^^^^^^^^^^^^^^^^^^^^^^^^^^^^^^^^^^^^^^^^^^^^",
"^^^^^^^^^^^^^^^^^^^^^^^^^^^^^^^^^^^^^^^^^^^^^^^^^^^^^^^^^^^^",
"^^^^^^^^^^^^^^^^^^^^^^^^^^^^^^^^^^^^^^^^^^^^^^^^^^^^^^^^^^^^",
"^^^^^^^^^^^^^^^^^^^^^^^^^^^^^^^^^^^^^^^^^^^^^^^^^^^^^^^^^^^^",
"^^^^^^^^^^^^^^^^^^^^^^^^^^^^^^^^^^^^^^^^^^^^^^^^^^^^^^^^^^^^",
"^^^^^^^^^^^^^^^^^^^^^^^^^^^^^^^^^^^^^^^^^^^^^^^^^^^^^^^^^^^^",
"^^^^^^^^^^^^^^^^^^^^^^^^^^^^^^^^^^^^^^^^^^^^^^^^^^^^^^^^^^^^",
"^^^^^^^^^^^^^^^^^^^^^^^^^^^^^^^^^^^^^^^^^^^^^^^^^^^^^^^^^^^^",
"^^^^^^^^^^^^^^^^^^^^^^^^^^^^^^^^^^^^^^^^^^^^^^^^^^^^^^^^^^^^",
"^^^^^^^^^^^^^^^^^^^^^^^^^^^q2^^^^^^^^^^^^^^^^^^^^^^^^^^^^^^^",
"^^^^^^^^^^^^^^^^^^^^^^^^^^#9;z%^^^^^^^^^^^^^^^^^^^^^^^^^^^^^",
"^^^^^^^^^^^^^^^^^^^^^^^^^X9$=;49<^^^^^^^^^^^^^^^^^^^^^^^^^^^",
"^^^^^^^^^^^^^^^^^^^^^^^^ 9$OO$OO$1%^^^^^^^^^^^^^^^^^^^^^^^^^",
"^^^^^^^^^^^^^^^^^^^^^^^+99$OO$qqq$9^^^^^^^^^^^^^^^^^^^^^^^^^",
"^^^^^^^^^^^^^^^^^^^^^^^^#9$O1qq9O=1o^^^^^^^^^^^^^^^^^^^^^^^^",
"^^^^^^^^^^^^^^^^^^^^^^^^@4$O$4$8ktO^^^^^^^^^^^^^^^^^^^^^^^^^",
"^^^^^^^^^^^^^^^^^^^^^^^^2$O$1FRRQY@^^^^^^^^^^^^^^^^^^^^^^^^^",
"^^^^^^^^^^^^^^^^^^^^^^^^2$O.^vW~!D^^^^^^^^^^^^^^^^^^^^^^^^^^",
"^^^^^^^^^^^^^^^^^^^^^^^^<<. ^^lUI^^^^^^^^^^^^^^^^^^^^^^^^^^^",
"^^^^^^^^^^^^^^^^^^^^^^^^Xo^^^DT-^^^^^^^^^^^^^^^^^^^^^^^^^^^^",
"^^^^^^^^^^^^^^^^^^^^^^^^^^^^rFQg^^^^^^^^^^^^^^^^^^^^^^^^^^^^",
"^^^^^^^^^^^^^^^^^^^^^^^^^^iNVAQSmb%^^^^^^^^^^^^^^^^^^^^^^^^^",
"^^^^^^^^^^^^^^^^^^^^^^^^^^mnCMTTMVa^^^^^^^^^^^^^^^^^^^^^^^^^",
"^^^^^^^^^^^^^^^^^^^^^^^^^^M8VVZUmM2^^^^^^^^^^^^^^^^^^^^^^^^^",
"^^^^^^^^^^^^^^^^^^^^^^^^^3M$mCMlMB1^^^^^^^^^^^^^^^^^^^^^^^^^",
"^^^^^^^^^^^^^^^^^^^^^^^^^rn4wNMtBB$o^^^^^^^^^^^^^^^^^^^^^^^^",
"^^^^^^^^^^^^^^^^^^^^^^^^^mp44pw4VM4.^^^^^^^^^^^^^^^^^^^^^^^^",
"^^^^^^^^^^^^^^^^^^^^^^^^%nmVBBwuNp4;,^:g,^^^^^^^^^^^^^^^^^^^",
"^^^^^^^^^^^^^^^^^^^^^^^^%mMap0yccytHd:^^^^^^^^^^^^^^^^^^^^^^",
"^^^^^^^^^^^^^^^^^^^^^^^^^oo24fxGGxjPs^^^^^^^^^^^^^^^^^^^^^^^",
"^^^^^^^^^^^^^^^^^^^^^^^^^^^588pMNMnjh^^^^^^^^^^^^^^^^^^^^^^^",
"^^^^^^^^^^^^^^^^^^^^^^^^^^^p4uBCVMn$X^^^^^^^^^^^^^^^^^^^^^^^",
"^^^^^^^^^^^^^^^^^^^^^^^^^^,p4pVCMnN4X^^^^^^^^^^^^^^^^^^^^^^^",
"^^^^^^^^^^^^^^^^^^^^^^^^^^7u8pNMunV4 ^^^^^^^^^^^^^^^^^^^^^^^",
"^^^^^^^^^^^^^^^^^^^^^^^^^^<w0uuuunV4^^^^^^^^^^^^^^^^^^^^^^^^",
"^^^^^^^^^^^^^^^^^^^^^^&>5ep8wuuuunV#^^^^^^^^^^^^^^^^^^^^^^^^",
"^^^^^^^^^^^^^^^^^^^%ee>&^^p4uuuuunV%^^^^^^^^^^^^^^^^^^^^^^^^",
"^^^^^^^^^^^^^^^^^^^^^^^^^^w0uuuuuMV%^^^^^^^^^^^^^^^^^^^^^^^^",
"^^^^^^^^^^^^^^^^^^^^^^^^^^w0uuuuuBV%^^^^^^^^^^^^^^^^^^^^^^^^",
"^^^^^^^^^^^^^^^^^^^^^^^^^3wwuuuunCV%^^^^^^^^^^^^^^^^^^^^^^^^",
"^^^^^^^^^^^^^^^^^^^^^^^^^30uuuuuMVno^^^^^^^^^^^^^^^^^^^^^^^^",
"^^^^^^^^^^^^^^^^^^^^^^^^^34uuuuupp6^^^^^^^^^^^^^^^^^^^^^^^^^",
"^^^^^^^^^^^^^^^^^^^^^^^^^-j.68888t+^^^^^^^^^^^^^^^^^^^^^^^^^",
"^^^^^^^^^^^^^^^^^^^^^^^^^JK^^^^^^HJ^^^^^^^^^^^^^^^^^^^^^^^^^",
"^^^^^^^^^^^^^^^^^^^^^^^^^YK^^^^^^KEL,^^^^^^^^^^^^^^^^^^^^^^^",
"^^^^^^^^^^^^^^^^^^^^^^^^^sf-^^^^^sjls^^^^^^^^^^^^^^^^^^^^^^^",
"^^^^^^^^^^^^^^^^^^^^^^^^^:d^^^^^^***@^^^^^^^^^^^^^^^^^^^^^^^"
};
