/* XPM */
static char *result[] = {
/* columns rows colors chars-per-pixel */
"60 60 87 1 ",
"' c #6FC500",
"  c #6FC500",
". c #0B0A0F",
"X c #0D0B12",
"o c #0E0C13",
"O c #0B0E16",
"+ c #0E0D16",
"@ c #120E17",
"# c #0E131A",
"$ c #0E1918",
"% c #10101B",
"& c #14121B",
"* c #11121F",
"= c #14131E",
"- c #15141D",
"; c #101F1E",
": c #2F150C",
"> c #221213",
", c #2D1D17",
"< c #281A1E",
"1 c #371714",
"2 c #361E14",
"3 c #31201D",
"4 c #101221",
"5 c #101323",
"6 c #141621",
"7 c #101426",
"8 c #141627",
"9 c #181722",
"0 c #131D21",
"q c #161A24",
"w c #1A1925",
"e c #14182C",
"r c #1B1A28",
"t c #1A1D2B",
"y c #1D1E2E",
"u c #132322",
"i c #152624",
"p c #1E202F",
"a c #232234",
"s c #242335",
"d c #252639",
"f c #24263A",
"g c #46121C",
"h c #45151C",
"j c #412418",
"k c #40251D",
"l c #4C2D24",
"z c #43312C",
"x c #543020",
"c c #5B3B24",
"v c #56302C",
"b c #57312D",
"n c #413137",
"m c #4A3D33",
"M c #583F3F",
"N c #613C37",
"B c #634C21",
"V c #724C20",
"C c #292940",
"Z c #2A2B41",
"A c #292D43",
"S c #2F2E43",
"D c #2E3048",
"F c #333247",
"G c #31344E",
"H c #343854",
"J c #363A57",
"K c #373C5A",
"L c #3A3F5E",
"P c #6D5855",
"I c #A07127",
"U c #8B4446",
"Y c #814C46",
"T c #884548",
"R c #92524C",
"E c #875352",
"W c #805A56",
"Q c #8B6057",
"! c #846B64",
"~ c #936A63",
"^ c #AA7066",
"/ c #C58479",
"( c #C59485",
") c #D39D8E",
"_ c #DDA999",
"` c #E6B6A8",
/* pixels */
"''''''''''''''''''''''''''''''''''''''''''''''''''''''''''''",
"''''''''''''''''''''''''''''''''''''''''''''''''''''''''''''",
"''''''''''''''''''''''''''''''''''''''''''''''''''''''''''''",
"''''''''''''''''''''''''''''''''''''''''''''''''''''''''''''",
"''''''''''''''''''''''''''''''''''''''''''''''''''''''''''''",
"''''''''''''''''''''''''''''''''''''''''''''''''''''''''''''",
"''''''''''''''''''''''''''''''''''''''''''''''''''''''''''''",
"''''''''''''''''''''''''''''''''''''''''''''''''''''''''''''",
"''''''''''''''''''''''''''''''''''''''''''''''''''''''''''''",
"''''''''''''''''''''''''''''''''''''''''''''''''''''''''''''",
"''''''''''''''''''''''''''''''''''''''''''''''''''''''''''''",
"''''''''''''''''''''''''''''''''''''''''''''''''''''''''''''",
"''''''''''''''''''''''''''''''''''''''''''''''''''''''''''''",
"''''''''''''''''''''''''''''''''''''''''''''''''''''''''''''",
"''''''''''''''''''''''''''''''''''''''''''''''''''''''''''''",
"''''''''''''''''''''''''''''''''''''''''''''''''''''''''''''",
"''''''''''''''''''''''''''''''''''''''''''''''''''''''''''''",
"''''''''''''''''''''''''''''''''''''''''''''''''''''''''''''",
"''''''''''''''''''''''''''''''''''''''''''''''''''''''''''''",
"''''''''''''''''''''''''''''''''''''''''''''''''''''''''''''",
"''''''''''''''''''''''''''''''''''''''''''''''''''''''''''''",
"'''''''''''''''''''''''''''@&'''''''''''''''''''''''''''''''",
"''''''''''''''''''''''''''Oe8,''''''''''''''''''''''''''''''",
"''''''''''''''''''''''''''543cq*''''''''''''''''''''''''''''",
"'''''''''''''''''''''''''*=oo%=%4X''''''''''''''''''''''''''",
"''''''''''''''''''''''''58=o%%%8e4*'''''''''''''''''''''''''",
"''''''''''''''''''''''''5e%o%eye898O''''''''''''''''''''''''",
"''''''''''''''''''''''''#8%%4e%4>>4-''''''''''''''''''''''''",
"''''''''''''''''''''''''5=%o4nmM~M+'''''''''''''''''''''''''",
"''''''''''''''''''''''''7%o+@~__`!''''''''''''''''''''''''''",
"''''''''''''''''''''''''7+oX',Q)('''''''''''''''''''''''''''",
"''''''''''''''''''''''''@@'''zYN''''''''''''''''''''''''''''",
"'''''''''''''''''''''''''''''P/2''''''''''''''''''''''''''''",
"''''''''''''''''''''''''''6tAP_Mt6''''''''''''''''''''''''''",
"''''''''''''''''''''''''''AHLF(WGJf'''''''''''''''''''''''''",
"''''''''''''''''''''''''''AaKGW^SGp'''''''''''''''''''''''''",
"'''''''''''''''''''''''''6D9GLnRSD+'''''''''''''''''''''''''",
"'''''''''''''''''''''''''0S9dLGbFH=.''''''''''''''''''''''''",
"'''''''''''''''''''''''''fC=9dawJG=X''''''''''''''''''''''''",
"'''''''''''''''''''''''''ZsddDdaKZ9+'''x2'''''''''''''''''''",
"''''''''''''''''''''''''#DHJGCwysywbxgg1''''''''''''''''''''",
"'''''''''''''''''''''''''pprwjVIIBlUh2''''''''''''''''''''''",
"'''''''''''''''''''''''''''*93jlmmnRv'''''''''''''''''''''''",
"'''''''''''''''''''''''''''*wyCKKJZ<-'''''''''''''''''''''''",
"'''''''''''''''''''''''''''d9sJLKDZ9 '''''''''''''''''''''''",
"''''''''''''''''''''''''''Os9dKLDZG9 '''''''''''''''''''''''",
"''''''''''''''''''''''''''tyrsDDaCK9.'''''''''''''''''''''''",
"''''''''''''''''''''''''';pyyaaaaCK5''''''''''''''''''''''''",
"''''''''''''''''''''0;qiu$dwaaaaaCJ-''''''''''''''''''''''''",
"'''''''''''''''''''O0#''''pwaaaaaZJ-''''''''''''''''''''''''",
"''''''''''''''''''''''''''yyaaaaaGK-''''''''''''''''''''''''",
"''''''''''''''''''''''''''yyaaaadJK-''''''''''''''''''''''''",
"'''''''''''''''''''''''''&yyaaaaDLJ-''''''''''''''''''''''''",
"'''''''''''''''''''''''''&yaaaaaFHC#''''''''''''''''''''''''",
"'''''''''''''''''''''''''&waassssaq'''''''''''''''''''''''''",
"''''''''''''''''''''''''',b*qrrrr3X'''''''''''''''''''''''''",
"'''''''''''''''''''''''''TU''''''UT'''''''''''''''''''''''''",
"'''''''''''''''''''''''''~U''''''Y/Ez'''''''''''''''''''''''",
"'''''''''''''''''''''''''kl&'''''jbck'''''''''''''''''''''''",
"''''''''''''''''''''''''':j'''''':::@'''''''''''''''''''''''"
};
