/* XPM */
static char *base[] = {
/* columns rows colors chars-per-pixel */
"75 75 6 1 ",
"  c #6FC500",
". c #6FC500",
"X c #6FC500",
"o c #6FC500",
"O c #6FC500",
"+ c #6FC500",
/* pixels */
"     .........XXXXXXXXX........................oooooXXXXXXXXXOOOOOOOOOOOOOO",
"     .........XXXXXXXXX........................oooooXXXXXXXXXOOOOOOOOOOOOOO",
"     .........XXXXXXXXX........................oooooXXXXXXXXXOOOOOOOOOOOOOO",
"     .........XXXXXXXXX........................oooooXXXXXXXXXOOOOOOOOOOOOOO",
"     .........XXXXXXXXX........................oooooXXXXXXXXXOOOOOOOOOOOOOO",
".....oooo..........XXXXOOOOO...................ooooo++++XXXXXXXXXXXXXX     ",
".....oooo..........XXXXOOOOO...................ooooo++++XXXXXXXXXXXXXX     ",
".....oooo..........XXXXOOOOO...................ooooo++++XXXXXXXXXXXXXX     ",
".....oooo..........XXXXOOOOO...................ooooo++++XXXXXXXXXXXXXX     ",
".........ooooo.........XXXXXOOOOO...................++++XXXXXXXXXX    .....",
".........ooooo.........XXXXXOOOOO...................++++XXXXXXXXXX    .....",
".........ooooo.........XXXXXOOOOO...................++++XXXXXXXXXX    .....",
".........ooooo.........XXXXXOOOOO...................++++XXXXXXXXXX    .....",
".........ooooo.........XXXXXOOOOO...................++++XXXXXXXXXX    .....",
".........ooooo.........XXXXXXXXXXOOOOOOOOOOOOOOOOOOO++++XXXXX     .........",
".........ooooo.........XXXXXXXXXXOOOOOOOOOOOOOOOOOOO++++XXXXX     .........",
".........ooooo.........XXXXXXXXXXOOOOOOOOOOOOOOOOOOO++++XXXXX     .........",
".........ooooo.........XXXXXXXXXXOOOOOOOOOOOOOOOOOOO++++XXXXX     .........",
".........ooooo.........XXXXXXXXXXOOOOOOOOOOOOOOOOOOO++++XXXXX     .........",
".........ooooo+++++++++XXXXXXXXXXXXXXXXXXXXXXXXXXXXXXXXXXXXXX     .........",
".........ooooo+++++++++XXXXXXXXXXXXXXXXXXXXXXXXXXXXXXXXXXXXXX     .........",
".........ooooo+++++++++XXXXXXXXXXXXXXXXXXXXXXXXXXXXXXXXXXXXXX     .........",
".........ooooo+++++++++XXXXXXXXXXXXXXXXXXXXXXXXXXXXXXXXXXXXXX     .........",
".....oooo++++++++++XXXX                   ..........XXXXXXXXXOOOOO.........",
".....oooo++++++++++XXXX                   ..........XXXXXXXXXOOOOO.........",
".....oooo++++++++++XXXX                   ..........XXXXXXXXXOOOOO.........",
".....oooo++++++++++XXXX                   ..........XXXXXXXXXOOOOO.........",
".....oooo++++++++++XXXX                   ..........XXXXXXXXXOOOOO.........",
".....+++++++++XXXXX         ..............ooooo.........XXXXXOOOOOOOOO.....",
".....+++++++++XXXXX         ..............ooooo.........XXXXXOOOOOOOOO.....",
".....+++++++++XXXXX         ..............ooooo.........XXXXXOOOOOOOOO.....",
".....+++++++++XXXXX         ..............ooooo.........XXXXXOOOOOOOOO.....",
".....+++++++++XXXXX         ..............ooooo.........XXXXXOOOOOOOOO.....",
"+++++++++XXXXXXXXXX         ...................ooooo.........XXXXXOOOOOOOOO",
"+++++++++XXXXXXXXXX         ...................ooooo.........XXXXXOOOOOOOOO",
"+++++++++XXXXXXXXXX         ...................ooooo.........XXXXXOOOOOOOOO",
"+++++++++XXXXXXXXXX         ...................ooooo.........XXXXXOOOOOOOOO",
"XXXXXXXXXXXXXXXXXXX+++++++++........................oooo..........XXXXOOOOO",
"XXXXXXXXXXXXXXXXXXX+++++++++........................oooo..........XXXXOOOOO",
"XXXXXXXXXXXXXXXXXXX+++++++++........................oooo..........XXXXOOOOO",
"XXXXXXXXXXXXXXXXXXX+++++++++........................oooo..........XXXXOOOOO",
"XXXXXXXXXXXXXXXXXXX+++++++++........................oooo..........XXXXOOOOO",
"         XXXXXXXXXX+++++++++............................ooooo.........XXXXX",
"         XXXXXXXXXX+++++++++............................ooooo.........XXXXX",
"         XXXXXXXXXX+++++++++............................ooooo.........XXXXX",
"         XXXXXXXXXX+++++++++............................ooooo.........XXXXX",
"         XXXXXXXXXX+++++++++............................ooooo.........XXXXX",
".....oooo     XXXXXOOOOOOOOO............................ooooo+++++++++XXXXX",
".....oooo     XXXXXOOOOOOOOO............................ooooo+++++++++XXXXX",
".....oooo     XXXXXOOOOOOOOO............................ooooo+++++++++XXXXX",
".....oooo     XXXXXOOOOOOOOO............................ooooo+++++++++XXXXX",
".....oooo     XXXXXOOOOOOOOO............................ooooo+++++++++XXXXX",
".........ooooo+++++XXXXOOOOOOOOOO...................oooo++++++++++XXXX.....",
".........ooooo+++++XXXXOOOOOOOOOO...................oooo++++++++++XXXX.....",
".........ooooo+++++XXXXOOOOOOOOOO...................oooo++++++++++XXXX.....",
".........ooooo+++++XXXXOOOOOOOOOO...................oooo++++++++++XXXX.....",
".........ooooo+++++XXXXXXXXXOOOOOOOOOOOOOO+++++++++++++++++++XXXXX.........",
".........ooooo+++++XXXXXXXXXOOOOOOOOOOOOOO+++++++++++++++++++XXXXX.........",
".........ooooo+++++XXXXXXXXXOOOOOOOOOOOOOO+++++++++++++++++++XXXXX.........",
".........ooooo+++++XXXXXXXXXOOOOOOOOOOOOOO+++++++++++++++++++XXXXX.........",
".........ooooo+++++XXXXXXXXXOOOOOOOOOOOOOO+++++++++++++++++++XXXXX.........",
".....oooo+++++XXXXXXXXX..........ooooOOOOOOOOOOOOOOOOOOOXXXXX..............",
".....oooo+++++XXXXXXXXX..........ooooOOOOOOOOOOOOOOOOOOOXXXXX..............",
".....oooo+++++XXXXXXXXX..........ooooOOOOOOOOOOOOOOOOOOOXXXXX..............",
".....oooo+++++XXXXXXXXX..........ooooOOOOOOOOOOOOOOOOOOOXXXXX..............",
".....oooo+++++XXXXXXXXX..........ooooOOOOOOOOOOOOOOOOOOOXXXXX..............",
".....++++XXXXXXXXXX..................oooooXXXXXXXXXXXXXXOOOOO..............",
".....++++XXXXXXXXXX..................oooooXXXXXXXXXXXXXXOOOOO..............",
".....++++XXXXXXXXXX..................oooooXXXXXXXXXXXXXXOOOOO..............",
".....++++XXXXXXXXXX..................oooooXXXXXXXXXXXXXXOOOOO..............",
"+++++XXXX     XXXXX.......................oooooXXXXXXXXXOOOOO+++++.........",
"+++++XXXX     XXXXX.......................oooooXXXXXXXXXOOOOO+++++.........",
"+++++XXXX     XXXXX.......................oooooXXXXXXXXXOOOOO+++++.........",
"+++++XXXX     XXXXX.......................oooooXXXXXXXXXOOOOO+++++.........",
"+++++XXXX     XXXXX.......................oooooXXXXXXXXXOOOOO+++++........."
};