/* XPM */
static char *result[] = {
/* columns rows colors chars-per-pixel */
"60 60 79 1 ",
"  c #6FC500",
". c #6FC500",
"X c #0B0F17",
"o c #0D0D16",
"O c #0F0F19",
"+ c #180E10",
"@ c #0D1115",
"# c #0E1018",
"$ c #0F111C",
"% c #0E101E",
"& c #0E1918",
"* c #14131F",
"= c #13141E",
"- c #25110A",
"; c #34180E",
": c #23161A",
"> c #21171C",
", c #341514",
"< c #3C191C",
"1 c #12211F",
"2 c #35241D",
"3 c #111421",
"4 c #131422",
"5 c #131525",
"6 c #171925",
"7 c #171828",
"8 c #1B1A28",
"9 c #1C1B28",
"0 c #191C29",
"q c #1D1D2C",
"w c #132321",
"e c #142523",
"r c #142624",
"t c #1D2030",
"y c #222131",
"u c #212335",
"i c #242234",
"p c #232538",
"a c #242538",
"s c #262538",
"d c #27293C",
"f c #28283C",
"g c #411E12",
"h c #402917",
"j c #4B2519",
"k c #4A2C18",
"l c #432422",
"z c #412824",
"x c #583A28",
"c c #583B2E",
"v c #5A3E2F",
"b c #4F3631",
"n c #413638",
"m c #5D3632",
"M c #612C2F",
"N c #673B33",
"B c #282B41",
"V c #2D2F46",
"C c #2F324B",
"Z c #323651",
"A c #353955",
"S c #373C59",
"D c #3A3F5E",
"F c #423A47",
"G c #614C44",
"H c #7C4A44",
"J c #7E5A51",
"K c #7F5B52",
"L c #7C5C51",
"P c #8B4B48",
"I c #9D4A4E",
"U c #A45656",
"Y c #A1635A",
"T c #936C61",
"R c #B66E65",
"E c #B67A6F",
"W c #BE897B",
"Q c #C79687",
"! c None",
/* pixels */
"!!!!!!!!!!!!!!!!!!!!!!!!!!!!!!!!!!!!!!!!!!!!!!!!!!!!!!!!!!!!",
"!!!!!!!!!!!!!!!!!!!!!!!!!!!!!!!!!!!!!!!!!!!!!!!!!!!!!!!!!!!!",
"!!!!!!!!!!!!!!!!!!!!!!!!!!!!!!!!!!!!!!!!!!!!!!!!!!!!!!!!!!!!",
"!!!!!!!!!!!!!!!!!!!!!!!!!!!!!!!!!!!!!!!!!!!!!!!!!!!!!!!!!!!!",
"!!!!!!!!!!!!!!!!!!!!!!!!!!!!!!!!!!!!!!!!!!!!!!!!!!!!!!!!!!!!",
"!!!!!!!!!!!!!!!!!!!!!!!!!!!!!!!!!!!!!!!!!!!!!!!!!!!!!!!!!!!!",
"!!!!!!!!!!!!!!!!!!!!!!!!!!!!!!!!!!!!!!!!!!!!!!!!!!!!!!!!!!!!",
"!!!!!!!!!!!!!!!!!!!!!!!!!!!!!!!!!!!!!!!!!!!!!!!!!!!!!!!!!!!!",
"!!!!!!!!!!!!!!!!!!!!!!!!!!!!!!!!!!!!!!!!!!!!!!!!!!!!!!!!!!!!",
"!!!!!!!!!!!!!!!!!!!!!!!!!!!!!!!!!!!!!!!!!!!!!!!!!!!!!!!!!!!!",
"!!!!!!!!!!!!!!!!!!!!!!!!!!!!!!!!!!!!!!!!!!!!!!!!!!!!!!!!!!!!",
"!!!!!!!!!!!!!!!!!!!!!!!!!!!!!!!!!!!!!!!!!!!!!!!!!!!!!!!!!!!!",
"!!!!!!!!!!!!!!!!!!!!!!!!!!!!!!!!!!!!!!!!!!!!!!!!!!!!!!!!!!!!",
"!!!!!!!!!!!!!!!!!!!!!!!!!!!!!!!!!!!!!!!!!!!!!!!!!!!!!!!!!!!!",
"!!!!!!!!!!!!!!!!!!!!!!!!!!!!!!!!!!!!!!!!!!!!!!!!!!!!!!!!!!!!",
"!!!!!!!!!!!!!!!!!!!!!!!!!!!!!!!!!!!!!!!!!!!!!!!!!!!!!!!!!!!!",
"!!!!!!!!!!!!!!!!!!!!!!!!!!!!!!!!!!!!!!!!!!!!!!!!!!!!!!!!!!!!",
"!!!!!!!!!!!!!!!!!!!!!!!!!!!!!!!!!!!!!!!!!!!!!!!!!!!!!!!!!!!!",
"!!!!!!!!!!!!!!!!!!!!!!!!!!!!!!!!!!!!!!!!!!!!!!!!!!!!!!!!!!!!",
"!!!!!!!!!!!!!!!!!!!!!!!!!!!!!!!!!!!!!!!!!!!!!!!!!!!!!!!!!!!!",
"!!!!!!!!!!!!!!!!!!!!!!!!!!!!!!!!!!!!!!!!!!!!!!!!!!!!!!!!!!!!",
"!!!!!!!!!!!!!!!!!!!!!!!!!!!!!!!!!!!!!!!!!!!!!!!!!!!!!!!!!!!!",
"!!!!!!!!!!!!!!!!!!!!!!!!!!!!!!!!!!!!!!!!!!!!!!!!!!!!!!!!!!!!",
"!!!!!!!!!!!!!!!!!!!!!!!!!!!!!!!!!!!!!!!!!!!!!!!!!!!!!!!!!!!!",
"!!!!!!!!!!!!!!!!!!!!! $!!!!!!!!!!!!!!!!!!!!!!!!!!!!!!!!!!!!!",
"!!!!!!!!!!!!!!!!!!!!!%7%!!!!!!!!!!!!!!!!!!!!!!!!!!!!!!!!!!!!",
"!!!!!!!!!!!!!!!!!!!!X5*>c!oX!!!!!!!!!!!!!!!!!!!!!!!!!!!!!!!!",
"!!!!!!!!!!!!!!!!!!X57*Ohv555%!!!!!!!!!!!!!!!!!!!!!!!!!!!!!!!",
"!!!!!!!!!!!!!!!!!!!4***>***OO73!!!!!!!!!!!!!!!!!!!!!!!!!!!!!",
"!!!!!!!!!!!!!!!!!! 5**..OOO5753!!!!!!!!!!!!!!!!!!!!!!!!!!!!!",
"!!!!!!!!!!!!!!!!!!$**o!%OO5755!!!!!!!!!!!!!!!!!!!!!!!!!!!!!!",
"!!!!!!!!!!!!!!!!!!5* !!#OOO>>@!!!!!!!!!!!!!!!!!!!!!!!!!!!!!!",
"!!!!!!!!!!!!!!!!!X5$!!!! OvWWK!!!!!!!!!!!!!!!!!!!!!!!!!!!!!!",
"!!!!!!!!!!!!!!!!!!$ !!!!!<HEQG!!!!!!!!!!!!!!!!!!!!!!!!!!!!!!",
"!!!!!!!!!!!!!!!!!!!!!!!!XxYmb!!!!!!!!!!!!!!!!!!!!!!!!!!!!!!!",
"!!!!!!!!!!!!!!!!!!!!!!!uAFT!!!!!!!!!!!!!!!!!!!!!!!!!!!!!!!!!",
"!!!!!!!!!!!!!!!!!!!!!!!ZDAn!!!!!!!!!!!!!!!!!!!!!!!!!!!!!!!!!",
"!!!!!!!!!!!!!!!!!!!!!!uDCDp!!!!!!!!!!!!!!!!!!!!!!!!!!!!!!!!!",
"!!!!!!!!!!!!!!!!!!!!!!ZVyS6!!!!!!!!!!!!!!!!!!!!!!!!!!!!!!!!!",
"!!!!!!!!!!!!!!!!!!!!!uAqCV6!!!!!!!!!!!!!!!!!!!!!!!!!!!!!!!!!",
"!!!!!!!!!!!!!!!!!!!!ofV8Vq=!!!!!!!!!!!!!!!!!!!!!!!!!!!!!!!!!",
"!!!!!!!!!!!!!!!!!!!!qqZZi7=!!!!!!!!!!!!!!!!!!!!!!!!!!!!!!!!!",
"!!!!!!!!!!!!!!!!!!!+y5yCSi4:!!!!!!!!!!!!!!!!!!!!!!!!!!!!!!!!",
"!!!!!!!!!!!!!!!!!!!0iykks*>PNx!!!!!!!!!!!!!!!!!!!!!!!!!!!!!!",
"!!!!!!!!!!!!!!!!!!!BSSq2h,<zl!!!!!!!!!!!!!!!!!!!!!!!!!!!!!!!",
"!!!!!!!!!!!!!!&&&1$iVDZsf+!!!!!!!!!!!!!!!!!!!!!!!!!!!!!!!!!!",
"!!!!!!!@rrrrrewwwX3fsZDCVB!!!!!!!!!!!!!!!!!!!!!!!!!!!!!!!!!!",
"!!!!!!!!!!!!!!!!!!9sisCSfAB!!!!!!!!!!!!!!!!!!!!!!!!!!!!!!!!!",
"!!!!!!!!!!!!!!!!!!piiiifffDB!!!!!!!!!!!!!!!!!!!!!!!!!!!!!!!!",
"!!!!!!!!!!!!!!!!!tfiiiiiy5CS0!!!!!!!!!!!!!!!!!!!!!!!!!!!!!!!",
"!!!!!!!!!!!!!!!!#ZfiiiisfOsAB!!!!!!!!!!!!!!!!!!!!!!!!!!!!!!!",
"!!!!!!!!!!!!!!!!dCiiiiiVy*qVS0!!!!!!!!!!!!!!!!!!!!!!!!!!!!!!",
"!!!!!!!!!!!!!!!#ZfiiiiiVq88sAd!!!!!!!!!!!!!!!!!!!!!!!!!!!!!!",
"!!!!!!!!!!!!!!!dViiiiiVC578iVZ!!!!!!!!!!!!!!!!!!!!!!!!!!!!!!",
"!!!!!!!!!!!!!!JH9qyysVDd!o8sfFc!!!!!!!!!!!!!!!!!!!!!!!!!!!!!",
"!!!!!!!!!!!!!cUl!!@=aVV3!!@t!MI!!!!!!!!!!!!!!!!!!!!!!!!!!!!!",
"!!!!!!!!!!!!bRI!!!!!!!!!!!!!!!EQ!!!!!!!!!!!!!!!!!!!!!!!!!!!!",
"!!!!!!!!!!!!!mPM!!!!!!!!!!!!!!HYLz!!!!!!!!!!!!!!!!!!!!!!!!!!",
"!!!!!!!!!!!!+;jj!!!!!!!!!!!!!!ggj-!!!!!!!!!!!!!!!!!!!!!!!!!!",
"!!!!!!!!!!!!+g;,!!!!!!!!!!!!!!-!-!!!!!!!!!!!!!!!!!!!!!!!!!!!"
};
