/* XPM */
static char *result[] = {
/* columns rows colors chars-per-pixel */
"60 60 83 1 ",
"  c #090911",
". c #0C0C13",
"X c #0B0C15",
"o c #0F0E16",
"O c #0B0E19",
"+ c #0C0E19",
"@ c #0F0F1A",
"# c #0E0F1B",
"$ c #0C0F1C",
"% c #140D10",
"& c #0D1016",
"* c #0E1016",
"= c #0D101E",
"- c #0F1919",
"; c #11111A",
": c #12111C",
"> c #14131E",
", c #1C161F",
"< c #24100A",
"1 c #2E160C",
"2 c #2F1210",
"3 c #301512",
"4 c #3F1D17",
"5 c #11201E",
"6 c #36241B",
"7 c #3D301F",
"8 c #111321",
"9 c #121323",
"0 c #131524",
"q c #131A20",
"w c #171926",
"e c #161C25",
"r c #191825",
"t c #1B1A27",
"y c #15182A",
"u c #1C1F2E",
"i c #1E1E2E",
"p c #1E1F30",
"a c #371924",
"s c #132321",
"d c #142523",
"f c #2E262C",
"g c #232234",
"h c #232436",
"j c #242534",
"k c #24293D",
"l c #27283C",
"z c #422419",
"x c #552D1B",
"c c #48301C",
"v c #553430",
"b c #553732",
"n c #583332",
"m c #52373B",
"M c #613130",
"N c #613731",
"B c #623E38",
"V c #703237",
"C c #674F21",
"Z c #282C42",
"A c #292C42",
"S c #2B2D45",
"D c #2C3048",
"F c #30334D",
"G c #343751",
"H c #353A56",
"J c #383D5B",
"K c #563C41",
"L c #3B4060",
"P c #6D4741",
"I c #7E4D47",
"U c #6C544D",
"Y c #7F6157",
"T c #854743",
"R c #894F49",
"E c #A15354",
"W c #946D63",
"Q c #A4796F",
"! c #B2746A",
"~ c #CB8F82",
"^ c #DCA091",
"/ c #E5B09E",
"( c None",
/* pixels */
"((((((((((((((((((((((((((((((((((((((((((((((((((((((((((((",
"((((((((((((((((((((((((((((((((((((((((((((((((((((((((((((",
"((((((((((((((((((((((((((((((((((((((((((((((((((((((((((((",
"((((((((((((((((((((((((((((((((((((((((((((((((((((((((((((",
"((((((((((((((((((((((((((((((((((((((((((((((((((((((((((((",
"((((((((((((((((((((((((((((((((((((((((((((((((((((((((((((",
"((((((((((((((((((((((((((((((((((((((((((((((((((((((((((((",
"((((((((((((((((((((((((((((((((((((((((((((((((((((((((((((",
"((((((((((((((((((((((((((((((((((((((((((((((((((((((((((((",
"((((((((((((((((((((((((((((((((((((((((((((((((((((((((((((",
"((((((((((((((((((((((((((((((((((((((((((((((((((((((((((((",
"((((((((((((((((((((((((((((((((((((((((((((((((((((((((((((",
"((((((((((((((((((((((((((((((((((((((((((((((((((((((((((((",
"((((((((((((((((((((((((((((((((((((((((((((((((((((((((((((",
"((((((((((((((((((((((((((((((((((((((((((((((((((((((((((((",
"((((((((((((((((((((((((((((((((((((((((((((((((((((((((((((",
"((((((((((((((((((((((((((((((((((((((((((((((((((((((((((((",
"((((((((((((((((((((((((((((((((((((((((((((((((((((((((((((",
"((((((((((((((((((((((((((((((((((((((((((((((((((((((((((((",
"((((((((((((((((((((((((((((((((((((((((((((((((((((((((((((",
"((((((((((((((((((((((((((((((((((((((((((((((((((((((((((((",
"((((((((((((((((((((((((((((((((((((((((((((((((((((((((((((",
"((((((((((((((((((((((((((((((((((((((((((((((((((((((((((((",
"((((((((((((((((((((((O(((((((((((((((((((((((((((((((((((((",
"(((((((((((((((((((((+y ((((((((((((((((((((((((((((((((((((",
"(((((((((((((((((((((0>0((((((((((((((((((((((((((((((((((((",
"((((((((((((((((((((=9:6C+08O(((((((((((((((((((((((((((((((",
"(((((((((((((((((((o9>:6f9>>9+O(((((((((((((((((((((((((((((",
"(((((((((((((((((((&99:.::@@9y#(((((((((((((((((((((((((((((",
"(((((((((((((((((((X9>@.@@9yy9$(((((((((((((((((((((((((((((",
"(((((((((((((((((&=0>>#+@.@9@8((((((((((((((((((((((((((((((",
"((((((((((((((((((:>:o((;@,BBv((((((((((((((((((((((((((((((",
"(((((((((((((((((( + ((((oI^/Y((((((((((((((((((((((((((((((",
"(((((((((((((((((((((((((vRIW(((((((((((((((((((((((((((((((",
"(((((((((((((((((((((((OkK!b((((((((((((((((((((((((((((((((",
"(((((((((((((((((((((((ZLGU(((((((((((((((((((((((((((((((((",
"((((((((((((((((((((((eJJJZ(((((((((((((((((((((((((((((((((",
"((((((((((((((((((((((AHhJp(((((((((((((((((((((((((((((((((",
"(((((((((((((((((((((eJglG0(((((((((((((((((((((((((((((((((",
"(((((((((((((((((((((ZFtGlq(((((((((((((((((((((((((((((((((",
"((((((((((((((((((((;lFhgyw(((((((((((((((((((((((((((((((((",
"(((((((((((((((((((*gtSJFi8(((((((((((((((((((((((((((((((((",
"(((((((((((((((((((&t,6fFi,ncc((((((((((((((((((((((((((((((",
"(((((((((((((((((((uFD6x6,4TN7((((((((((((((((((((((((((((((",
"((((((((((((((((((*hLJil62((((((((((((((((((((((((((((((((((",
"((((((((-----5ddddqtHLlHD(((((((((((((((((((((((((((((((((((",
"(((((((&ssssse(((((plHDDJw((((((((((((((((((((((((((((((((((",
"((((((((((((((((((-DglFlLk((((((((((((((((((((((((((((((((((",
"((((((((((((((((((wFggSlJD((((((((((((((((((((((((((((((((((",
"((((((((((((((((((uFgggtHH&(((((((((((((((((((((((((((((((((",
"((((((((((((((((((ZFggg>FJw(((((((((((((((((((((((((((((((((",
"(((((((((((((((((jHlggi.DLA(((((((((((((((((((((((((((((((((",
"((((((((((((((((jHGggg,@lJZ(((((((((((((((((((((((((((((((((",
"(((((((((((((((VmDlggg,:iGZ(((((((((((((((((((((((((((((((((",
"((((((((((((4<PE38gggi>>ilZ(((((((((((((((((((((((((((((((((",
"((((((((((((3zTV(Xtigr(%0ta(((((((((((((((((((((((((((((((((",
"((((((((((((2xM((((*%(((((EQ((((((((((((((((((((((((((((((((",
"(((((((((((((<((((((((((((R~W7((((((((((((((((((((((((((((((",
"((((((((((((((((((((((((((4xBz((((((((((((((((((((((((((((((",
"((((((((((((((((((((((((((114%(((((((((((((((((((((((((((((("
};
