/* XPM */
static char *result[] = {
/* columns rows colors chars-per-pixel */
"60 60 85 1 ",
"  c #120B0D",
". c #0B0A10",
"X c #0A0B12",
"o c #0B0E15",
"O c #0D0C14",
"+ c #100F17",
"@ c #100F19",
"# c #0C1117",
"$ c #0E101D",
"% c #11121B",
"& c #16121B",
"* c #13111D",
"= c #11131F",
"- c #16141E",
"; c #24110A",
": c #29130C",
"> c #2D150C",
", c #3B1B0F",
"< c #2B1815",
"1 c #361713",
"2 c #351E1C",
"3 c #3C191C",
"4 c #3E291B",
"5 c #0E1121",
"6 c #171520",
"7 c #151523",
"8 c #111426",
"9 c #141627",
"0 c #181622",
"q c #131920",
"w c #171925",
"e c #1A1928",
"r c #1E1D2C",
"t c #271920",
"y c #132121",
"u c #132423",
"i c #142523",
"p c #182128",
"a c #22202F",
"s c #202334",
"d c #232234",
"f c #252435",
"g c #242637",
"h c #222538",
"j c #26273A",
"k c #29293D",
"l c #35313E",
"z c #472114",
"x c #462F1D",
"c c #4C2C1B",
"v c #4D3A14",
"b c #4B2D2A",
"n c #562428",
"m c #55312E",
"M c #5F3A35",
"N c #643833",
"B c #623B3A",
"V c #554227",
"C c #5C453E",
"Z c #79433C",
"A c #282B41",
"S c #2C2D44",
"D c #2E314A",
"F c #323651",
"G c #343854",
"H c #373C59",
"J c #383D5B",
"K c #403745",
"L c #3B405F",
"P c #774847",
"I c #7E4B45",
"U c #7C524E",
"Y c #7F5C53",
"T c #8B3A40",
"R c #864842",
"E c #8A4E49",
"W c #964447",
"Q c #815E55",
"! c #A85B56",
"~ c #996D63",
"^ c #AF6762",
"/ c #B27B6F",
"( c #BE897B",
") c #CF9A8C",
"_ c None",
/* pixels */
"____________________________________________________________",
"____________________________________________________________",
"____________________________________________________________",
"____________________________________________________________",
"____________________________________________________________",
"____________________________________________________________",
"____________________________________________________________",
"____________________________________________________________",
"____________________________________________________________",
"____________________________________________________________",
"____________________________________________________________",
"____________________________________________________________",
"____________________________________________________________",
"____________________________________________________________",
"____________________________________________________________",
"____________________________________________________________",
"____________________________________________________________",
"____________________________________________________________",
"____________________________________________________________",
"____________________________________________________________",
"____________________________________________________________",
"____________________________________________________________",
"____________________________________________________________",
"____________________________________________________________",
"_____________________=7_____________________________________",
"_____________________595____________________________________",
"____________________X9*6x_o#________________________________",
"__________________X_56@4V9995_______________________________",
"__________________599**66**@*9&_____________________________",
"__________________o9**@O@@@999$_____________________________",
"__________________86*@o.@@9e99______________________________",
"_________________ 9*O _X@OOt6-______________________________",
"_________________$6+____=@N((Y______________________________",
"_________________5*#_____3I/)C______________________________",
"_________________XO_____#B^Mb_______________________________",
"_______________________gGK~_________________________________",
"_______________________FLGl_________________________________",
"______________________gJDJh_________________________________",
"______________________FSaHw_________________________________",
"_____________________gGrDDw_________________________________",
"____________________okSeSr-_________________________________",
"____________________rrFFd9-_________________________________",
"___________________%d6aDHs6&________________________________",
"___________________=saccf6tENv______________________________",
"___________________gLGr4413b2_______________________________",
"______________qqqpuDJDfDk&__________________________________",
"_______ouuuuuiyyy#yJDf6fHGq_________________________________",
"__________________pJkd6rSJGq________________________________",
"__________________lGfd6rdSJGq_______________________________",
"_________________qGSdr*6ddSLj_______________________________",
"_________________AGfde66ddfGF_______________________________",
"________________gLSdd6a6addSH=______________________________",
"_______________XGGfda6d6addkJA______________________________",
"_______________gJSddeedeeddfHF______________________________",
"______________QUjddf7&&$0fddkKx_____________________________",
"_____________P^m_%7eX___+7-o_nT_____________________________",
"____________C))_______________!W____________________________",
"_____________M~Y______________ZRN<__________________________",
"____________ ,zc______________zzz;__________________________",
"____________ 1>1______________;_:___________________________"
};
