/* XPM */
static char *result[] = {
/* columns rows colors chars-per-pixel */
"60 60 86 1 ",
"  c #6FC500",
". c #6FC500",
"X c #0B0A0F",
"o c #0B0C17",
"O c #0D0D18",
"+ c #0C0E19",
"@ c #0E0E18",
"# c #140F14",
"$ c #0E1719",
"% c #0F101C",
"& c #171017",
"* c #101019",
"= c #12111C",
"- c #14131F",
"; c #13171F",
": c #231009",
"> c #2C150C",
", c #2F1210",
"< c #23151B",
"1 c #331910",
"2 c #3E1E13",
"3 c #372515",
"4 c #31221A",
"5 c #3B261B",
"6 c #111320",
"7 c #121323",
"8 c #121721",
"9 c #141420",
"0 c #171520",
"q c #121424",
"w c #141625",
"e c #151B23",
"r c #161C25",
"t c #181826",
"y c #191B29",
"u c #1C1C2B",
"i c #1E1C2B",
"p c #251C2A",
"a c #3D1B24",
"s c #211F30",
"d c #132322",
"f c #142523",
"g c #162326",
"h c #2D262C",
"j c #212132",
"k c #242335",
"l c #2E2B34",
"z c #232739",
"x c #272738",
"c c #27273B",
"v c #25293E",
"b c #4C281B",
"n c #522D19",
"m c #4D2D26",
"M c #4F3326",
"N c #5B3028",
"B c #553732",
"V c #613731",
"C c #6D3838",
"Z c #5F413E",
"A c #674F21",
"S c #63403D",
"D c #272C42",
"F c #2A2B42",
"G c #2E2D40",
"H c #2A2D44",
"J c #2D3047",
"K c #30334D",
"L c #343853",
"P c #373C5A",
"I c #3A3E5E",
"U c #563C41",
"Y c #6C544D",
"T c #7F6157",
"R c #7E6359",
"E c #83373C",
"W c #824446",
"Q c #804B45",
"! c #8D4846",
"~ c #B15E5A",
"^ c #956A60",
"/ c #976A65",
"( c #AB736A",
") c #DCA091",
"_ c #E5B09E",
"` c None",
/* pixels */
"````````````````````````````````````````````````````````````",
"````````````````````````````````````````````````````````````",
"````````````````````````````````````````````````````````````",
"````````````````````````````````````````````````````````````",
"````````````````````````````````````````````````````````````",
"````````````````````````````````````````````````````````````",
"````````````````````````````````````````````````````````````",
"````````````````````````````````````````````````````````````",
"````````````````````````````````````````````````````````````",
"````````````````````````````````````````````````````````````",
"````````````````````````````````````````````````````````````",
"````````````````````````````````````````````````````````````",
"````````````````````````````````````````````````````````````",
"````````````````````````````````````````````````````````````",
"````````````````````````````````````````````````````````````",
"````````````````````````````````````````````````````````````",
"````````````````````````````````````````````````````````````",
"````````````````````````````````````````````````````````````",
"````````````````````````````````````````````````````````````",
"````````````````````````````````````````````````````````````",
"````````````````````````````````````````````````````````````",
"````````````````````````````````````````````````````````````",
"````````````````````````````````````````````````````````````",
"``````````````````````+`````````````````````````````````````",
"`````````````````````ot&````````````````````````````````````",
"`````````````````````q-q````````````````````````````````````",
"````````````````````#0=4A9w8+```````````````````````````````",
"```````````````````*0-=5h7--7o``````````````````````````````",
"``````````````````` 77=@==@@7t6`````````````````````````````",
"```````````````````$7-@@@=7tt7&`````````````````````````````",
"````````````````` %q--Oo=@@7@O``````````````````````````````",
"``````````````````=-=O``*@<SZM``````````````````````````````",
"``````````````````.oX````*Q)_T``````````````````````````````",
"`````````````````````````M!Q^```````````````````````````````",
"```````````````````````+vU(B````````````````````````````````",
"```````````````````````HILY`````````````````````````````````",
"``````````````````````rPPPx`````````````````````````````````",
"``````````````````````HLkIj`````````````````````````````````",
"`````````````````````rPkcLw`````````````````````````````````",
"`````````````````````xKtLc8`````````````````````````````````",
"````````````````````*cKkjty`````````````````````````````````",
"```````````````````;ktFPKu8`````````````````````````````````",
"```````````````````;ut5hKu0NmM``````````````````````````````",
"```````````````````yKJ4n4<aQV3``````````````````````````````",
"```````````````````zIKjG5,``````````````````````````````````",
"````````$$$$$effff8JIkjLJ```````````````````````````````````",
"```````;dgggdr`````JLtiFPy``````````````````````````````````",
"``````````````````$LK0ikLv``````````````````````````````````",
"``````````````````yPc0ikKJ``````````````````````````````````",
"``````````````````vKs=tkFL;`````````````````````````````````",
"`````````````````;Lcs=0kcPe`````````````````````````````````",
"`````````````````vJkut0scLe`````````````````````````````````",
"````````````````yJkktitikJg`````````````````````````````````",
"```````````````lKkkj-titjFD`````````````````````````````````",
"````````````2:R/ijks=0k0sFD`````````````````````````````````",
"````````````&b(W`%it96st0pa`````````````````````````````````",
"````````````,nC```` ``#X``!E````````````````````````````````",
"`````````````:````````````Q~C3``````````````````````````````",
"``````````````````````````2NN1``````````````````````````````",
"``````````````````````````>12#``````````````````````````````"
};
