/* XPM */
static char *_66ce2156c2146289f1c2da2ed78fcf1H8UDcOvsKBNz56NS[] = {
/* columns rows colors chars-per-pixel */
"60 60 163 2 ",
"   c #47704C",
".  c #111211",
"X  c #151415",
"o  c #262427",
"O  c #070707",
"+  c #1D1B1D",
"@  c #010202",
"#  c #141415",
"$  c #1B1B1A",
"%  c #0E0C0D",
"&  c #080908",
"*  c #060606",
"=  c gray1",
"-  c #040404",
";  c #404041",
":  c gray1",
">  c #0C0C0C",
",  c #050606",
"<  c #030404",
"1  c #0B0B0A",
"2  c gray3",
"3  c #0B0C0B",
"4  c #050705",
"5  c #070607",
"6  c gray2",
"7  c #0D0D0C",
"8  c #0E0E0D",
"9  c #090909",
"0  c #0E0D0D",
"q  c gray4",
"w  c #050504",
"e  c #090909",
"r  c #131A0E",
"t  c #070707",
"y  c #060605",
"u  c #090809",
"i  c #162111",
"p  c #0D1D10",
"a  c #D4D5D0",
"s  c #0A0A09",
"d  c None",
"f  c gray4",
"g  c #27311A",
"h  c #2D3D1B",
"j  c #2F4621",
"k  c #1E2A19",
"l  c #0D130B",
"z  c #153119",
"x  c #577930",
"c  c #455A29",
"v  c #1D3019",
"b  c #142B16",
"n  c #171C0E",
"m  c #F89A1C",
"M  c #DA6D28",
"N  c #010102",
"B  c #F99B1C",
"V  c #FB9C1C",
"C  c #FBD537",
"Z  c #090504",
"A  c #F8991D",
"S  c #F4951E",
"D  c #F2901F",
"F  c #D96C28",
"G  c #FBD637",
"H  c #DB6E27",
"J  c #C25928",
"K  c #120906",
"L  c #D66928",
"P  c #EE8B20",
"I  c #E67F23",
"U  c #843E20",
"Y  c #F6971D",
"T  c #DE7226",
"R  c #F89E1D",
"E  c #331A0E",
"W  c #E37B24",
"Q  c #BD5629",
"!  c #A94E26",
"~  c #597D32",
"^  c #F8A11F",
"/  c #CF6328",
"(  c #CB6128",
")  c #152A15",
"_  c #D16728",
"`  c #180C08",
"'  c #E27824",
"]  c #E07625",
"[  c #FAC931",
"{  c #FBCD33",
"}  c #EC8821",
"|  c #E98222",
" . c #21100A",
".. c #B65329",
"X. c #DE7028",
"o. c #70361C",
"O. c #A55323",
"+. c #3C1E0F",
"@. c #29140C",
"#. c #EB8521",
"$. c #C65D28",
"%. c #753E19",
"&. c #552C15",
"*. c #184523",
"=. c #83B33F",
"-. c #709739",
";. c #34461E",
":. c #638634",
">. c #F8A821",
",. c #F8B125",
"<. c #8D4420",
"1. c #4B2513",
"2. c #68331B",
"3. c #BF6225",
"4. c #3B5224",
"5. c #379042",
"6. c #28351A",
"7. c #1A2011",
"8. c #F9BF2B",
"9. c #9D4824",
"0. c #FAC42F",
"q. c #954B21",
"w. c #DD891F",
"e. c #B25D24",
"r. c #7AA73B",
"t. c #31853F",
"y. c #74A23B",
"u. c #75AD40",
"i. c #399946",
"p. c #30421D",
"a. c #C47B1D",
"s. c #236230",
"d. c #347D39",
"f. c #265025",
"g. c #13361C",
"h. c #4F8336",
"j. c #52A444",
"k. c #538F3B",
"l. c #5CAB44",
"z. c #4D6A2A",
"x. c #52702D",
"c. c #FBD135",
"v. c #F8A420",
"b. c #502616",
"n. c #8C5518",
"m. c #B66E1E",
"M. c #5E3117",
"N. c #D67E20",
"B. c #E78E1E",
"V. c #23592C",
"C. c #277438",
"Z. c #669F3E",
"A. c #85BA41",
"S. c #3D6C2E",
"D. c #69B344",
"F. c #F8BA2A",
"G. c #F6A41F",
"H. c #A25F1C",
"J. c #639039",
"K. c #5E973D",
"L. c #48612A",
"P. c #472313",
"I. c #92C843",
/* pixels */
"                                                                                                                        ",
"                                              + % 3 2 2 1 0 #                                                           ",
"      + # a                               . 2 & z f.d z.S.d j g 0 o                                                     ",
"      # & t > X                     + % u r *.d.u.=.~ L.x.-.:.z.j g .                                                   ",
"        s @ - * f 3 % # X X # . > e & i f.k.Z.:.~ -.x.6.7.6.p.p.6.7., 1 o       ; X o                                   ",
"        o e - 6.4.h i r r r r i h d h.K.y.=.A.J.p.) ;.h y.u.D.l.k.S.p.l f $   + k c g > o                               ",
"          ; q : 6.:.r.r.r.r.-.-.=.I.=.-.:.4.6.7.z.=.~ :.D.i.t.V.z b v i Z O X q 7.~ u.x k o                             ",
"              3 < p 4.~ y.=.=.y.:.:.-.z.;.4.x.L.A.r.x.l.5.s.) O 0 X X % 9 < & r h.t.5.~ j .                             ",
"                7 w ) V.V.f.4.d 4.;.p.;.y.A.~ K.j.~ h.C.g., q +           7 4 ;.D.i.C.p e o                             ",
"                  . O p s.t.5.5.Z.-.~ j.j.h.k.i.t.s.*.p 5 %               $ * ~ l.d.g.f o                               ",
"                    + 2 , ) f.d.J.k.i.5.5.t.d.s.*.) 4 e X + # . . . X $   > n Z.i.*.& X                                 ",
"                        . 9 w l ) g.*.*.*.g.) p 4 & 9 9 5 * , < < 4 , * 5 * ;.l.C.i 8                                   ",
"                            X 7 u O 6 * * y 5 5 6 4 - N N N N Z Z Z N N N Z ~ j.g.O $                                   ",
"                                  ; + + # s 6 = N N K E b.2.U U U U U o.+.7.u.S.Z = y 1 $                               ",
"                                      7 & @ N Z E o.9...Q J $.( _ L _ 3.&.;.u.) +.` N @ & 7 a                           ",
"                                  $ u : N Z +.U ..Q J $._ T I } P e.2.&.E 7.) @.e.m.M.K N : e +                         ",
"                                # O @ N @.U ..Q J ( F I D Y m B S m.a.w.w.a.n.&.M.N.Y m.+.N @ O #                       ",
"                              . y N Z b.! Q J / F ] P A B m m m B V V B B V V S a.N.m A w.%.Z N & .                     ",
"                            . y N Z 2...Q ( L H I S B m m m m m m m m m m m m B V B m D S S n.K N y #                   ",
"                          $ 5 N K o.Q J / M H I Y B m m m m m m m m m m m m m m m m m Y Y B A H.K N O $                 ",
"                        ; 9 N Z 2.Q J L M M I Y B m m m m m m m m m m m m m m m m m m m m m B m n.Z @ 9 ;               ",
"                        3 = N &...$.L H M ' S B m m m m m m m m m m m m m m m m m m m m m m m B S %.N : >               ",
"                      # * N E ! J L M M T D B m m m m m m m m m m m m m m m m m m m m m m m A m V w.+.N 6 X             ",
"                      e N K <.J _ H M M | m m m m m m m m m m m m m m m m m m m m m m m B ^ v.R m B H.K @ s             ",
"                    . , N b.Q ( M M M T S m m m m m m m m m m m m m m m m m m m m m m m ,.{ c.0.G.m } &.N w X           ",
"                    2 N ` 9.J F M M M | B B m m m m m m m m m m m m m m m m m m m m m ^ { C C C [ v.Y e.K @ 1           ",
"                  $ 6 N 1.Q ( M M M H D Y D S A m m m m m m m m m m m m m m m m m m m >.c.C C C C 0.R W 1.N 5 o         ",
"                  0 = Z U J L M M M ] Y S #.' D B m m m m m m m m m m m m m m m m m m >.c.C C C C C ,.P <.Z < %         ",
"                  u N @.! $.M M M F I B #.W D Y m m m m m m m m m m m m m m m m m m m R [ C C C C C 8.S 3. .N 1         ",
"                o & N 1.Q / M M M M } B D | I S B m m m m m m m m m m m m m m m m m m m ,.C C C C C [ m T P.N t         ",
"                X , N o.J L M M M H D B B Y P Y m m m m m m m m m m m m m m m m m m m m ^ [ C C C C { ^ W o.N 6 +       ",
"                % : Z <.$.F M M M T S m m m B m m m m m m m m m m m m m m m m m m m m m m ,.C C C C { v.I <.N , #       ",
"                7 - K 9.( M M M F ] Y m m m m m m m m m m m m m m m m m m m m m m m m m m G.{ C C C { ^ | O.Z : %       ",
"                3 @ ` ! ( M M M F ' A m m m m m m m m m m m m m m m m m m m m m m m m m m R 0.C C C [ R | O.Z = 8       ",
"                1 N  .! ( M M M F W A m m m m m m m m m m m m m m m m m m m m m m m m m m B 8.C C C 8.B I O.Z = 8       ",
"                1 N  .! ( M M M F W A m m m m m m m m m m m m m m m m m m m m m m m m m m m 8.C C C ,.Y W O.Z = 8       ",
"                3 @ ` 9.( M M M F ' A m m m m m m m m m m m m m m m m m m m m m m m m m m m F.G C [ ^ S ] O.Z : %       ",
"                0 = K 9.$.M M M F ] Y m m m m m m m m m m m m m m m m m m m m m m m m m m m >.[ [ >.B D T q.N 4 #       ",
"                . < Z U J F M M M T S m m m m m m m m m m m m m m m m m m m m m m m m m m m m R R m B #.X.o.N * $       ",
"                $ * N M.J L M M M H D B m m m m m m m m m m m m m m m m m m m m m m m m m m R >.^ m m W F 1.N O ;       ",
"                a t N +..._ H M M M #.B m m m m m m m m m m m m m m m m m m m m m m m m m B F.c.0.R S T 3.@.N 2         ",
"                  1 @ ` 9./ H M M M W A m m m m m m m m m m m m m m m m m m m Y m m m m m R { G { ^ } X.q.Z : 8         ",
"                  . < N o.( M M M M T S B m m m m m m m m m m m m m m m m B D W Y m m m m R 0.G 8.m W F &.N 6 $         ",
"                  ; O N E ..L M M M M } B m m m m m m m m m m m m m m m B D P D S m m m m m >.,.^ P X.e.` N 2           ",
"                    > - Z U / M M M F ' Y m m m m m m m m m m m m m m m B P #.I P B m m m m m A S ] M 2.N 4 .           ",
"                    + & N E ..F M M M H P B m m m m m m m m m m m m m m m m A P D m m m m m m m | X.O.` N 9             ",
"                      > = N 2.( M M M M ' Y B m m m m m m m m m m m m m m m m B m m m m m m B D T _ 1.N , .             ",
"                      o t N K <._ M M M H #.m m m m m m m m m m m m m m m m m m m m m m m B Y W M %.Z @ q               ",
"                        . w N @.! L H M M T D B m m m m m m m m m m m m m m m m m m m m B B #.H q.K N O +               ",
"                          > : N E ! L M M M ] S B m m m m m m m m m m m m m m m m m m m B P X.O. .N * .                 ",
"                            s - N +.! L H M M ' S B m m m m m m m m m m m m m m m m m m } X.q. .N , 8                   ",
"                            ; 2 - N @.q._ H M M ' D B m m m m m m m m m m m m m m B A } F U ` N , 7                     ",
"                              ; s : N ` o.$.M H M ] D B m m m m m m m m m m m m B S I 3.&.Z N w 0                       ",
"                                  > w N Z E <.( M M T P m B m m m m m m m m B A } _ %. .N @ & %                         ",
"                                    . O - N Z +.U e.L X.| S B B B B B V V Y | 3.%.@.N N < u X                           ",
"                                      o 3 y @ N N  .1.%.O.3.N.B.B.B.w.a.H.%.+.` N N = O 8                               ",
"                                          $ 3 5 : N N N Z ` @.E +.E @.` Z N N @ 4 t 0 o                                 ",
"                                              o % 2 5 , : - @ N N N @ - < * t 1 . a                                     ",
"                                                    o X % > 1 s 2 q 3 7 . $                                             ",
"                                                                                                                        "
};
